<svg version="1.1" id="Layer_1" xmlns="http://www.w3.org/2000/svg" xmlns:xlink="http://www.w3.org/1999/xlink" x="0px" y="0px"
	 width="100%" viewBox="0 0 1200 1200" enable-background="new 0 0 1200 1200" xml:space="preserve">
<path fill="#000000" opacity="1.000000" stroke="none" 
	d="
M697.000000,1201.000000 
	C464.666656,1201.000000 232.833328,1201.000000 1.000000,1201.000000 
	C1.000000,801.000000 1.000000,401.000000 1.000000,1.000000 
	C401.000000,1.000000 801.000000,1.000000 1201.000000,1.000000 
	C1201.000000,401.000000 1201.000000,801.000000 1201.000000,1201.000000 
	C1033.166626,1201.000000 865.333313,1201.000000 697.000000,1201.000000 
M866.498718,822.898010 
	C846.968567,772.339233 827.412231,721.790466 807.938599,671.209961 
	C805.232910,664.182434 804.332764,657.391968 807.420715,649.709595 
	C814.557800,631.953491 820.487427,613.715515 827.254578,595.804382 
	C828.788879,591.743469 830.027161,588.426270 826.295105,585.042114 
	C825.702515,584.504822 825.950745,583.040283 825.722351,581.356506 
	C827.774536,582.300293 829.130066,582.923645 830.560913,583.581665 
	C831.303040,582.209045 831.979431,581.243103 832.380981,580.173889 
	C844.978882,546.631714 857.575806,513.089111 870.091736,479.516357 
	C871.623962,475.406403 870.229980,473.113586 865.760681,472.893066 
	C857.787354,472.499603 849.787720,472.429474 841.803284,472.537964 
	C835.163757,472.628204 828.526611,473.110870 821.895813,473.535919 
	C818.835571,473.732086 816.788574,475.151367 815.763245,478.368835 
	C814.110352,483.555359 811.859985,488.548370 810.098511,493.703918 
	C798.001221,529.111755 785.759888,564.472900 774.041626,600.006226 
	C770.742554,610.010193 764.870544,619.456177 765.919678,630.660828 
	C765.961426,631.105713 765.740540,631.867920 765.428223,632.009033 
	C761.050537,633.986755 762.101379,638.841553 760.026733,641.984802 
	C758.690247,644.009888 756.807617,645.674438 755.169678,647.500549 
	C754.447632,647.165283 753.725525,646.829956 753.003479,646.494629 
	C753.003479,632.193298 752.890625,617.890869 753.033447,603.590942 
	C753.193054,587.618652 753.787964,571.649109 753.817444,555.677673 
	C753.846375,540.039185 753.390503,524.400024 753.170349,508.760773 
	C753.046997,499.996918 753.245178,491.217743 752.778625,482.473206 
	C752.451843,476.348236 749.200256,472.692810 743.521118,472.710510 
	C732.906006,472.743622 722.225647,473.053223 711.702087,474.322662 
	C703.804016,475.275452 702.277161,478.242950 702.976196,485.969238 
	C703.080872,487.126282 703.012939,488.300873 702.993774,489.466858 
	C702.719849,506.105835 702.181946,522.745300 702.220764,539.383484 
	C702.285583,567.148804 702.702515,594.913391 703.038269,622.677551 
	C703.057556,624.267334 703.698242,625.846130 704.017090,627.436584 
	C704.460754,629.649048 705.382690,631.907166 705.214478,634.077087 
	C704.292236,645.976990 702.788452,657.838074 702.104858,669.748108 
	C701.617249,678.244812 702.148132,686.797668 702.152527,695.325439 
	C702.166138,722.026062 702.035889,748.727234 702.174316,775.427124 
	C702.278442,795.505127 702.999939,815.583557 702.854675,835.657532 
	C702.796204,843.739075 706.450256,849.899719 710.580017,856.071960 
	C711.273682,857.108765 713.145996,857.874634 714.478027,857.880981 
	C721.960876,857.916748 729.457947,857.894287 736.922668,857.440063 
	C740.164124,857.242798 743.340027,855.967407 747.357239,854.982727 
	C748.843201,852.379456 752.086609,849.036255 752.606384,845.312866 
	C753.784546,836.872070 753.809814,828.247314 753.956604,819.691406 
	C754.148010,808.531250 754.110291,797.363892 753.970886,786.202209 
	C753.851746,776.659668 753.287292,767.122070 753.208801,757.579895 
	C753.065247,740.137817 753.187988,722.693604 753.073120,705.251160 
	C753.049194,701.613281 752.074402,697.960266 752.242554,694.347046 
	C752.557068,687.588623 753.379211,680.853394 754.010620,674.110474 
	C754.137939,672.751099 754.356384,671.400330 754.583618,669.655762 
	C759.051697,671.469543 761.298035,674.018372 762.547791,677.991760 
	C770.605225,703.607605 778.578491,729.255371 787.095093,754.720154 
	C796.766296,783.637390 806.927734,812.391418 816.980103,841.180054 
	C820.475830,851.191162 827.631653,857.000427 835.893250,857.002502 
	C846.949158,857.005188 858.005066,857.000549 869.060974,857.004456 
	C876.031555,857.006897 877.483826,855.265930 875.321960,848.549805 
	C872.631348,840.190918 869.569336,831.951660 866.498718,822.898010 
M427.740143,545.382812 
	C427.828430,544.288025 427.732880,542.295044 428.032684,542.233704 
	C432.298706,541.360596 432.250214,537.941589 432.453308,534.846252 
	C432.671082,531.527405 432.656891,528.175781 432.476318,524.853027 
	C432.280029,521.241150 433.561584,519.864929 437.365448,519.926697 
	C450.027039,520.132263 462.694122,520.039124 475.358856,519.989990 
	C481.879211,519.964722 485.258636,517.811523 486.977661,512.062683 
	C487.635498,509.862823 487.101257,507.317383 487.181335,504.931824 
	C487.418060,497.879974 487.525635,490.818420 487.993134,483.781189 
	C488.498749,476.169739 485.690796,472.565277 478.143799,471.820099 
	C476.821960,471.689545 475.495361,471.486969 474.172913,471.500916 
	C443.769043,471.821564 413.362885,472.026947 382.963196,472.583588 
	C372.002716,472.784271 361.038177,473.617645 350.113220,474.587341 
	C343.413727,475.181976 336.648376,476.071564 330.176422,477.810608 
	C326.177155,478.885254 323.272675,481.985229 326.200592,486.968140 
	C326.711365,487.837433 326.499664,489.205902 326.427032,490.331238 
	C325.970642,497.401367 325.386566,504.463837 324.985229,511.536835 
	C324.528137,519.592590 326.706573,521.906250 334.950195,521.981140 
	C345.441376,522.076477 355.934143,522.004333 366.426208,522.004456 
	C371.200134,522.004517 375.974060,522.004456 380.057373,522.004456 
	C381.144257,535.638123 382.200531,548.688599 383.197479,561.743713 
	C383.283417,562.869385 383.013214,564.030334 382.847076,565.165955 
	C381.962158,571.214539 380.536743,577.239197 380.291229,583.312317 
	C379.980865,590.989502 380.713440,598.704163 380.810669,606.405029 
	C380.843903,609.038086 380.097351,611.677063 380.082336,614.315369 
	C379.992584,630.105286 380.080902,645.896362 379.946869,661.685608 
	C379.913757,665.588318 379.799957,669.272949 384.160370,670.998657 
	C383.237976,674.337646 380.706757,677.291260 383.998199,680.380554 
	C384.410034,680.767151 383.770660,682.481018 383.369812,683.480164 
	C382.674896,685.212402 381.109070,686.861328 381.095734,688.554565 
	C381.039978,695.641785 381.324463,702.737732 381.686951,709.820007 
	C381.905182,714.084106 383.696442,718.635437 382.702789,722.527100 
	C379.255249,736.029846 381.872070,749.310364 382.809692,762.684387 
	C383.016449,765.633850 382.718689,768.615295 382.767944,771.580139 
	C382.811646,774.211792 383.014496,776.840759 383.209045,780.700134 
	C380.648529,784.365723 381.237885,791.384033 385.447083,795.719055 
	C388.001129,798.349426 388.177856,799.054138 385.861023,799.901001 
	C382.200775,801.239014 381.897614,803.923035 381.987091,807.083130 
	C382.349854,819.890869 382.644043,832.700684 383.037781,845.507446 
	C383.242981,852.182129 388.444855,856.749878 395.092957,855.767090 
	C401.170990,854.868591 407.792297,856.301392 413.137878,851.815125 
	C413.805878,851.254517 415.045990,851.218933 416.023529,851.209656 
	C421.684052,851.156189 427.345306,851.183594 433.574890,851.183594 
	C434.018982,847.854309 434.469727,844.786926 434.830780,841.708984 
	C435.897644,832.614258 431.694214,823.659058 434.586670,814.341431 
	C435.607025,811.054565 433.762390,806.881104 433.239594,803.110474 
	C433.107635,802.158813 432.575317,800.863403 432.995972,800.296631 
	C436.854034,795.098572 433.944397,790.572327 431.945740,785.837891 
	C431.425110,784.604614 431.682831,782.979126 431.802582,781.552185 
	C432.067505,778.395630 432.640503,775.257446 432.766083,772.098938 
	C432.866974,769.562073 432.320282,767.003113 432.366699,764.459534 
	C432.480927,758.202026 433.434723,751.878784 432.793732,745.712646 
	C432.218353,740.177246 430.782379,735.188416 432.417755,729.222412 
	C434.044891,723.286499 432.421906,716.506409 432.584259,710.105591 
	C432.689301,705.964050 434.669159,701.238464 427.972076,701.239746 
	C429.604156,699.997742 432.239349,698.131287 432.170105,698.024902 
	C429.655151,694.160583 432.557831,690.545776 432.534271,686.860168 
	C432.476288,677.789856 432.557983,668.718689 432.500824,659.648315 
	C432.457001,652.693298 432.350739,645.737244 432.159821,638.784790 
	C431.765839,624.436340 431.037445,610.091858 430.930908,595.742126 
	C430.822540,581.147034 431.421509,566.547180 431.370331,551.950562 
	C431.363281,549.934937 429.399292,547.926086 427.740143,545.382812 
M593.493225,854.482544 
	C596.033813,853.382446 598.511658,851.558655 601.127991,851.331543 
	C606.737183,850.844727 612.417908,851.182312 617.921570,851.182312 
	C620.337524,844.297485 620.480286,832.888428 618.507446,826.280090 
	C618.102417,824.923462 617.604858,823.167786 618.118164,822.034607 
	C620.931458,815.823181 619.491455,809.669922 618.363159,803.470154 
	C618.163452,802.372681 617.583862,800.858215 618.072876,800.198914 
	C621.807861,795.163452 618.917114,790.740662 617.170227,786.128174 
	C616.662598,784.787842 616.503235,783.220276 616.572998,781.775635 
	C616.740295,778.311584 617.229980,774.863464 617.406860,771.399536 
	C617.504333,769.490601 617.083313,767.557190 617.155029,765.644592 
	C617.390625,759.363708 618.758545,752.923950 617.780212,746.853210 
	C616.710876,740.218018 616.570862,734.091064 617.700806,727.410706 
	C618.945190,720.054199 618.131531,712.335144 617.992310,704.778015 
	C617.975403,703.860718 616.716492,702.772156 615.782959,702.122437 
	C614.911865,701.516052 613.707520,701.388428 613.431519,701.300110 
	C614.952942,699.864807 617.368713,697.737488 617.288879,697.639282 
	C614.545776,694.265686 617.446899,691.119324 617.477905,687.926758 
	C617.570984,678.356934 617.540771,668.785278 617.483643,659.214783 
	C617.442078,652.259033 617.242004,645.304382 617.180542,638.348572 
	C616.943787,611.566528 616.736877,584.784363 616.512756,558.002197 
	C616.468384,552.701660 618.151978,546.796265 609.617371,543.802063 
	C619.196045,540.940857 617.275879,534.395203 617.510132,528.702454 
	C617.544312,527.870605 617.607788,527.023865 617.499390,526.204895 
	C616.887085,521.577332 618.416504,519.723389 623.515625,519.879395 
	C636.002625,520.261292 648.509705,520.072632 661.007629,519.975708 
	C667.511597,519.925293 673.025330,514.639343 672.956848,509.127075 
	C672.851257,500.628845 672.739624,492.120850 673.026978,483.630432 
	C673.286621,475.957947 670.656494,472.040619 662.972473,471.917786 
	C643.830688,471.611786 624.679077,471.690826 605.534241,471.889374 
	C590.795837,472.042206 576.055786,472.459839 561.327576,473.042053 
	C548.701660,473.541138 536.083923,474.335052 523.480530,475.246399 
	C520.751465,475.443726 517.958191,476.390533 515.443359,477.537872 
	C511.382751,479.390472 508.172363,481.920288 511.272491,487.126221 
	C511.712463,487.865082 511.522675,489.043427 511.459076,490.007416 
	C510.992920,497.069427 510.416382,504.124664 510.007172,511.189697 
	C509.515198,519.684143 511.577454,521.930725 520.102783,521.981689 
	C533.927673,522.064392 547.753479,521.997192 561.578857,522.014587 
	C563.007690,522.016357 564.436401,522.162659 565.099548,522.199463 
	C566.143921,535.600586 567.167908,548.501160 568.126099,561.406677 
	C568.221680,562.693237 567.979797,564.018982 567.786865,565.310425 
	C566.933167,571.024414 565.498169,576.713013 565.292236,582.447388 
	C565.004517,590.463440 565.707703,598.510925 565.805481,606.547241 
	C565.837463,609.180298 565.081238,611.818909 565.066711,614.457092 
	C564.980835,630.071899 564.856628,645.689758 565.111694,661.300598 
	C565.168640,664.785706 566.690002,668.247009 567.537170,671.719238 
	C568.008362,671.632324 568.479553,671.545410 568.950745,671.458496 
	C567.615479,675.236084 567.694153,675.215393 569.061157,680.413391 
	C569.302368,681.330688 568.692993,682.550842 568.272400,683.544861 
	C567.600952,685.131592 566.132263,686.632690 566.099243,688.193237 
	C565.970398,694.281738 566.136597,700.386597 566.456604,706.471497 
	C566.741638,711.889709 568.847717,717.671387 567.564331,722.622437 
	C564.355469,735.001526 566.987244,747.173889 567.131958,759.407837 
	C567.211609,766.135254 570.335205,773.441650 568.540955,779.423584 
	C566.191406,787.256653 567.643616,792.839722 572.127686,798.645325 
	C572.254150,798.809082 572.022400,799.249512 571.928650,799.700745 
	C567.841492,800.337341 566.828552,803.076538 566.962158,806.880188 
	C567.429565,820.183594 567.915222,833.490540 568.037598,846.799377 
	C568.072510,850.598572 569.732300,852.440186 572.759460,854.085754 
	C579.348450,857.667664 586.108337,854.345093 593.493225,854.482544 
z"/>
<path fill="#FDFDFD" opacity="1.000000" stroke="none" 
	d="
M866.583191,823.279358 
	C869.569336,831.951660 872.631348,840.190918 875.321960,848.549805 
	C877.483826,855.265930 876.031555,857.006897 869.060974,857.004456 
	C858.005066,857.000549 846.949158,857.005188 835.893250,857.002502 
	C827.631653,857.000427 820.475830,851.191162 816.980103,841.180054 
	C806.927734,812.391418 796.766296,783.637390 787.095093,754.720154 
	C778.578491,729.255371 770.605225,703.607605 762.547791,677.991760 
	C761.298035,674.018372 759.051697,671.469543 754.583618,669.655762 
	C754.356384,671.400330 754.137939,672.751099 754.010620,674.110474 
	C753.379211,680.853394 752.557068,687.588623 752.242554,694.347046 
	C752.074402,697.960266 753.049194,701.613281 753.073120,705.251160 
	C753.187988,722.693604 753.065247,740.137817 753.208801,757.579895 
	C753.287292,767.122070 753.851746,776.659668 753.970886,786.202209 
	C754.110291,797.363892 754.148010,808.531250 753.956604,819.691406 
	C753.809814,828.247314 753.784546,836.872070 752.606384,845.312866 
	C752.086609,849.036255 748.843201,852.379456 747.357239,854.982727 
	C743.340027,855.967407 740.164124,857.242798 736.922668,857.440063 
	C729.457947,857.894287 721.960876,857.916748 714.478027,857.880981 
	C713.145996,857.874634 711.273682,857.108765 710.580017,856.071960 
	C706.450256,849.899719 702.796204,843.739075 702.854675,835.657532 
	C702.999939,815.583557 702.278442,795.505127 702.174316,775.427124 
	C702.035889,748.727234 702.166138,722.026062 702.152527,695.325439 
	C702.148132,686.797668 701.617249,678.244812 702.104858,669.748108 
	C702.788452,657.838074 704.292236,645.976990 705.214478,634.077087 
	C705.382690,631.907166 704.460754,629.649048 704.017090,627.436584 
	C703.698242,625.846130 703.057556,624.267334 703.038269,622.677551 
	C702.702515,594.913391 702.285583,567.148804 702.220764,539.383484 
	C702.181946,522.745300 702.719849,506.105835 702.993774,489.466858 
	C703.012939,488.300873 703.080872,487.126282 702.976196,485.969238 
	C702.277161,478.242950 703.804016,475.275452 711.702087,474.322662 
	C722.225647,473.053223 732.906006,472.743622 743.521118,472.710510 
	C749.200256,472.692810 752.451843,476.348236 752.778625,482.473206 
	C753.245178,491.217743 753.046997,499.996918 753.170349,508.760773 
	C753.390503,524.400024 753.846375,540.039185 753.817444,555.677673 
	C753.787964,571.649109 753.193054,587.618652 753.033447,603.590942 
	C752.890625,617.890869 753.003479,632.193298 753.003479,646.494629 
	C753.725525,646.829956 754.447632,647.165283 755.169678,647.500549 
	C756.807617,645.674438 758.690247,644.009888 760.026733,641.984802 
	C762.101379,638.841553 761.050537,633.986755 765.428223,632.009033 
	C765.740540,631.867920 765.961426,631.105713 765.919678,630.660828 
	C764.870544,619.456177 770.742554,610.010193 774.041626,600.006226 
	C785.759888,564.472900 798.001221,529.111755 810.098511,493.703918 
	C811.859985,488.548370 814.110352,483.555359 815.763245,478.368835 
	C816.788574,475.151367 818.835571,473.732086 821.895813,473.535919 
	C828.526611,473.110870 835.163757,472.628204 841.803284,472.537964 
	C849.787720,472.429474 857.787354,472.499603 865.760681,472.893066 
	C870.229980,473.113586 871.623962,475.406403 870.091736,479.516357 
	C857.575806,513.089111 844.978882,546.631714 832.380981,580.173889 
	C831.979431,581.243103 831.303040,582.209045 830.560913,583.581665 
	C829.130066,582.923645 827.774536,582.300293 825.722351,581.356506 
	C825.950745,583.040283 825.702515,584.504822 826.295105,585.042114 
	C830.027161,588.426270 828.788879,591.743469 827.254578,595.804382 
	C820.487427,613.715515 814.557800,631.953491 807.420715,649.709595 
	C804.332764,657.391968 805.232910,664.182434 807.938599,671.209961 
	C827.412231,721.790466 846.968567,772.339233 866.583191,823.279358 
z"/>
<path fill="#FDFDFD" opacity="1.000000" stroke="none" 
	d="
M428.040710,545.648438 
	C429.399292,547.926086 431.363281,549.934937 431.370331,551.950562 
	C431.421509,566.547180 430.822540,581.147034 430.930908,595.742126 
	C431.037445,610.091858 431.765839,624.436340 432.159821,638.784790 
	C432.350739,645.737244 432.457001,652.693298 432.500824,659.648315 
	C432.557983,668.718689 432.476288,677.789856 432.534271,686.860168 
	C432.557831,690.545776 429.655151,694.160583 432.170105,698.024902 
	C432.239349,698.131287 429.604156,699.997742 427.972076,701.239746 
	C434.669159,701.238464 432.689301,705.964050 432.584259,710.105591 
	C432.421906,716.506409 434.044891,723.286499 432.417755,729.222412 
	C430.782379,735.188416 432.218353,740.177246 432.793732,745.712646 
	C433.434723,751.878784 432.480927,758.202026 432.366699,764.459534 
	C432.320282,767.003113 432.866974,769.562073 432.766083,772.098938 
	C432.640503,775.257446 432.067505,778.395630 431.802582,781.552185 
	C431.682831,782.979126 431.425110,784.604614 431.945740,785.837891 
	C433.944397,790.572327 436.854034,795.098572 432.995972,800.296631 
	C432.575317,800.863403 433.107635,802.158813 433.239594,803.110474 
	C433.762390,806.881104 435.607025,811.054565 434.586670,814.341431 
	C431.694214,823.659058 435.897644,832.614258 434.830780,841.708984 
	C434.469727,844.786926 434.018982,847.854309 433.574890,851.183594 
	C427.345306,851.183594 421.684052,851.156189 416.023529,851.209656 
	C415.045990,851.218933 413.805878,851.254517 413.137878,851.815125 
	C407.792297,856.301392 401.170990,854.868591 395.092957,855.767090 
	C388.444855,856.749878 383.242981,852.182129 383.037781,845.507446 
	C382.644043,832.700684 382.349854,819.890869 381.987091,807.083130 
	C381.897614,803.923035 382.200775,801.239014 385.861023,799.901001 
	C388.177856,799.054138 388.001129,798.349426 385.447083,795.719055 
	C381.237885,791.384033 380.648529,784.365723 383.209045,780.700134 
	C383.014496,776.840759 382.811646,774.211792 382.767944,771.580139 
	C382.718689,768.615295 383.016449,765.633850 382.809692,762.684387 
	C381.872070,749.310364 379.255249,736.029846 382.702789,722.527100 
	C383.696442,718.635437 381.905182,714.084106 381.686951,709.820007 
	C381.324463,702.737732 381.039978,695.641785 381.095734,688.554565 
	C381.109070,686.861328 382.674896,685.212402 383.369812,683.480164 
	C383.770660,682.481018 384.410034,680.767151 383.998199,680.380554 
	C380.706757,677.291260 383.237976,674.337646 384.160370,670.998657 
	C379.799957,669.272949 379.913757,665.588318 379.946869,661.685608 
	C380.080902,645.896362 379.992584,630.105286 380.082336,614.315369 
	C380.097351,611.677063 380.843903,609.038086 380.810669,606.405029 
	C380.713440,598.704163 379.980865,590.989502 380.291229,583.312317 
	C380.536743,577.239197 381.962158,571.214539 382.847076,565.165955 
	C383.013214,564.030334 383.283417,562.869385 383.197479,561.743713 
	C382.200531,548.688599 381.144257,535.638123 380.057373,522.004456 
	C375.974060,522.004456 371.200134,522.004517 366.426208,522.004456 
	C355.934143,522.004333 345.441376,522.076477 334.950195,521.981140 
	C326.706573,521.906250 324.528137,519.592590 324.985229,511.536835 
	C325.386566,504.463837 325.970642,497.401367 326.427032,490.331238 
	C326.499664,489.205902 326.711365,487.837433 326.200592,486.968140 
	C323.272675,481.985229 326.177155,478.885254 330.176422,477.810608 
	C336.648376,476.071564 343.413727,475.181976 350.113220,474.587341 
	C361.038177,473.617645 372.002716,472.784271 382.963196,472.583588 
	C413.362885,472.026947 443.769043,471.821564 474.172913,471.500916 
	C475.495361,471.486969 476.821960,471.689545 478.143799,471.820099 
	C485.690796,472.565277 488.498749,476.169739 487.993134,483.781189 
	C487.525635,490.818420 487.418060,497.879974 487.181335,504.931824 
	C487.101257,507.317383 487.635498,509.862823 486.977661,512.062683 
	C485.258636,517.811523 481.879211,519.964722 475.358856,519.989990 
	C462.694122,520.039124 450.027039,520.132263 437.365448,519.926697 
	C433.561584,519.864929 432.280029,521.241150 432.476318,524.853027 
	C432.656891,528.175781 432.671082,531.527405 432.453308,534.846252 
	C432.250214,537.941589 432.298706,541.360596 428.032684,542.233704 
	C427.732880,542.295044 427.828430,544.288025 428.040710,545.648438 
z"/>
<path fill="#FDFDFD" opacity="1.000000" stroke="none" 
	d="
M593.122681,854.695068 
	C586.108337,854.345093 579.348450,857.667664 572.759460,854.085754 
	C569.732300,852.440186 568.072510,850.598572 568.037598,846.799377 
	C567.915222,833.490540 567.429565,820.183594 566.962158,806.880188 
	C566.828552,803.076538 567.841492,800.337341 571.928650,799.700745 
	C572.022400,799.249512 572.254150,798.809082 572.127686,798.645325 
	C567.643616,792.839722 566.191406,787.256653 568.540955,779.423584 
	C570.335205,773.441650 567.211609,766.135254 567.131958,759.407837 
	C566.987244,747.173889 564.355469,735.001526 567.564331,722.622437 
	C568.847717,717.671387 566.741638,711.889709 566.456604,706.471497 
	C566.136597,700.386597 565.970398,694.281738 566.099243,688.193237 
	C566.132263,686.632690 567.600952,685.131592 568.272400,683.544861 
	C568.692993,682.550842 569.302368,681.330688 569.061157,680.413391 
	C567.694153,675.215393 567.615479,675.236084 568.950745,671.458496 
	C568.479553,671.545410 568.008362,671.632324 567.537170,671.719238 
	C566.690002,668.247009 565.168640,664.785706 565.111694,661.300598 
	C564.856628,645.689758 564.980835,630.071899 565.066711,614.457092 
	C565.081238,611.818909 565.837463,609.180298 565.805481,606.547241 
	C565.707703,598.510925 565.004517,590.463440 565.292236,582.447388 
	C565.498169,576.713013 566.933167,571.024414 567.786865,565.310425 
	C567.979797,564.018982 568.221680,562.693237 568.126099,561.406677 
	C567.167908,548.501160 566.143921,535.600586 565.099548,522.199463 
	C564.436401,522.162659 563.007690,522.016357 561.578857,522.014587 
	C547.753479,521.997192 533.927673,522.064392 520.102783,521.981689 
	C511.577454,521.930725 509.515198,519.684143 510.007172,511.189697 
	C510.416382,504.124664 510.992920,497.069427 511.459076,490.007416 
	C511.522675,489.043427 511.712463,487.865082 511.272491,487.126221 
	C508.172363,481.920288 511.382751,479.390472 515.443359,477.537872 
	C517.958191,476.390533 520.751465,475.443726 523.480530,475.246399 
	C536.083923,474.335052 548.701660,473.541138 561.327576,473.042053 
	C576.055786,472.459839 590.795837,472.042206 605.534241,471.889374 
	C624.679077,471.690826 643.830688,471.611786 662.972473,471.917786 
	C670.656494,472.040619 673.286621,475.957947 673.026978,483.630432 
	C672.739624,492.120850 672.851257,500.628845 672.956848,509.127075 
	C673.025330,514.639343 667.511597,519.925293 661.007629,519.975708 
	C648.509705,520.072632 636.002625,520.261292 623.515625,519.879395 
	C618.416504,519.723389 616.887085,521.577332 617.499390,526.204895 
	C617.607788,527.023865 617.544312,527.870605 617.510132,528.702454 
	C617.275879,534.395203 619.196045,540.940857 609.617371,543.802063 
	C618.151978,546.796265 616.468384,552.701660 616.512756,558.002197 
	C616.736877,584.784363 616.943787,611.566528 617.180542,638.348572 
	C617.242004,645.304382 617.442078,652.259033 617.483643,659.214783 
	C617.540771,668.785278 617.570984,678.356934 617.477905,687.926758 
	C617.446899,691.119324 614.545776,694.265686 617.288879,697.639282 
	C617.368713,697.737488 614.952942,699.864807 613.431519,701.300110 
	C613.707520,701.388428 614.911865,701.516052 615.782959,702.122437 
	C616.716492,702.772156 617.975403,703.860718 617.992310,704.778015 
	C618.131531,712.335144 618.945190,720.054199 617.700806,727.410706 
	C616.570862,734.091064 616.710876,740.218018 617.780212,746.853210 
	C618.758545,752.923950 617.390625,759.363708 617.155029,765.644592 
	C617.083313,767.557190 617.504333,769.490601 617.406860,771.399536 
	C617.229980,774.863464 616.740295,778.311584 616.572998,781.775635 
	C616.503235,783.220276 616.662598,784.787842 617.170227,786.128174 
	C618.917114,790.740662 621.807861,795.163452 618.072876,800.198914 
	C617.583862,800.858215 618.163452,802.372681 618.363159,803.470154 
	C619.491455,809.669922 620.931458,815.823181 618.118164,822.034607 
	C617.604858,823.167786 618.102417,824.923462 618.507446,826.280090 
	C620.480286,832.888428 620.337524,844.297485 617.921570,851.182312 
	C612.417908,851.182312 606.737183,850.844727 601.127991,851.331543 
	C598.511658,851.558655 596.033813,853.382446 593.122681,854.695068 
z"/>
</svg>