<svg version="1.1" id="Layer_1" xmlns="http://www.w3.org/2000/svg" xmlns:xlink="http://www.w3.org/1999/xlink" x="0px" y="0px"
	 width="100%" viewBox="0 0 1200 1200" enable-background="new 0 0 1200 1200" xml:space="preserve">
<path fill="#77BC3F" opacity="1.000000" stroke="none" 
	d="
M526.000000,1201.000000 
	C350.666656,1201.000000 175.833328,1201.000000 1.000000,1201.000000 
	C1.000000,801.000000 1.000000,401.000000 1.000000,1.000000 
	C401.000000,1.000000 801.000000,1.000000 1201.000000,1.000000 
	C1201.000000,401.000000 1201.000000,801.000000 1201.000000,1201.000000 
	C976.166687,1201.000000 751.333313,1201.000000 526.000000,1201.000000 
M636.499756,908.667664 
	C735.277832,908.667664 834.055969,908.667664 933.176636,908.667664 
	C933.176636,743.514709 933.176636,578.948364 933.176636,414.164673 
	C711.633301,414.164673 490.365448,414.164673 268.823822,414.164673 
	C268.823822,578.950623 268.823822,743.516968 268.823822,908.667664 
	C391.277954,908.667664 513.388855,908.667664 636.499756,908.667664 
z"/>
<path fill="#F6F7F4" opacity="1.000000" stroke="none" 
	d="
M635.999756,908.667664 
	C513.388855,908.667664 391.277954,908.667664 268.823822,908.667664 
	C268.823822,743.516968 268.823822,578.950623 268.823822,414.164673 
	C490.365448,414.164673 711.633301,414.164673 933.176636,414.164673 
	C933.176636,578.948364 933.176636,743.514709 933.176636,908.667664 
	C834.055969,908.667664 735.277832,908.667664 635.999756,908.667664 
M860.222046,506.798096 
	C863.449158,497.911774 866.729187,489.044159 869.882812,480.131836 
	C871.649475,475.139191 870.310669,472.961060 864.795166,472.736511 
	C856.645020,472.404724 848.472778,472.414917 840.314453,472.550171 
	C834.170776,472.652039 827.971313,472.777985 821.926941,473.724609 
	C819.692993,474.074493 817.028259,476.397644 815.961609,478.523987 
	C813.521240,483.388947 811.806702,488.640137 810.039734,493.817200 
	C797.936951,529.277527 785.717896,564.700073 773.952148,600.272339 
	C770.674805,610.181091 764.993896,619.558594 765.886047,630.619202 
	C765.922119,631.066345 765.625732,631.570068 765.400024,632.003662 
	C763.637085,635.390137 762.039124,638.883057 760.008057,642.101929 
	C758.751892,644.092651 756.827209,645.661621 755.202637,647.419922 
	C754.468079,647.136658 753.733582,646.853333 752.999023,646.570068 
	C752.999023,632.947388 752.886658,619.323608 753.027710,605.702393 
	C753.200073,589.056213 753.786804,572.412720 753.819885,555.767273 
	C753.851379,539.956360 753.389526,524.144653 753.165100,508.333008 
	C753.042969,499.723724 753.234497,491.099243 752.771484,482.509247 
	C752.453674,476.613892 749.603821,472.937744 744.460876,472.992828 
	C732.713379,473.118713 720.917297,473.697906 709.259338,475.086761 
	C703.404114,475.784302 702.059265,479.190948 702.883362,485.137482 
	C703.087708,486.611938 703.014709,488.131531 702.994263,489.629364 
	C702.726196,509.275970 702.204895,528.922668 702.227051,548.568848 
	C702.255005,573.348999 702.703064,598.128906 703.050598,622.907776 
	C703.072815,624.489502 703.836670,626.051758 704.172913,627.640564 
	C704.616516,629.736389 705.461548,631.888367 705.295837,633.948792 
	C704.337769,645.859192 702.809448,657.731079 702.119141,669.653320 
	C701.615723,678.348755 702.143799,687.101624 702.147156,695.828918 
	C702.157349,722.391724 702.024170,748.955139 702.164062,775.517151 
	C702.268127,795.290161 702.647034,815.062622 703.058350,834.832214 
	C703.133728,838.453979 703.156006,842.427063 704.612549,845.588562 
	C706.847656,850.439880 708.309387,857.531189 714.785828,857.700256 
	C725.209167,857.972473 735.680664,856.607849 746.117065,855.753967 
	C746.906250,855.689331 747.727844,854.276062 748.278992,853.339417 
	C751.092163,848.558350 754.267334,843.847595 752.098816,837.810242 
	C751.890320,837.229980 752.093689,836.492004 752.143921,835.830078 
	C752.758118,827.738403 753.877319,819.648376 753.897034,811.555603 
	C753.940308,793.825012 753.331299,776.093933 753.167725,758.361389 
	C752.997498,739.909241 753.071533,721.454895 752.952881,703.002136 
	C752.933777,700.025818 752.112610,697.032227 752.280640,694.081848 
	C752.637817,687.809631 753.402527,681.560669 753.998474,675.302002 
	C754.160706,673.597900 754.316895,671.893188 754.475891,670.188782 
	C755.057983,669.928528 755.640076,669.668213 756.222168,669.407959 
	C758.221375,671.971741 760.844238,674.269653 762.076416,677.160400 
	C764.019348,681.718750 764.857971,686.732910 766.458496,691.454346 
	C781.238708,735.054688 796.065674,778.639282 810.922241,822.213745 
	C813.703674,830.371704 816.225952,838.662964 819.691101,846.530090 
	C823.078064,854.219543 830.736084,857.626587 838.995972,856.772888 
	C842.585083,856.401917 846.250427,856.767822 849.881104,856.799500 
	C857.000488,856.861572 864.120911,857.021851 871.238831,856.945435 
	C874.868408,856.906494 876.888245,855.134277 875.928772,851.175354 
	C875.576660,849.722595 875.261230,848.248352 874.753479,846.847595 
	C866.769653,824.823425 859.061768,802.692871 850.682861,780.819580 
	C836.715881,744.358704 822.207703,708.105164 808.213562,671.654480 
	C806.144409,666.264954 803.543396,660.673523 805.891541,654.352356 
	C813.225037,634.611084 820.233215,614.748657 827.605591,595.022278 
	C828.950317,591.424011 829.674866,588.490112 826.662537,585.466614 
	C825.964539,584.766052 826.062622,583.272522 825.668274,581.613098 
	C827.833435,582.383362 829.145508,582.850098 831.525635,583.696777 
	C841.125061,558.114807 850.608276,532.842529 860.222046,506.798096 
M566.221741,668.884399 
	C567.091492,669.946838 568.813904,671.842957 568.707947,671.951294 
	C564.747314,676.001953 571.562317,681.394043 566.428955,686.123474 
	C564.108337,688.261536 565.347107,694.669678 565.599854,699.104797 
	C566.051208,707.027588 568.703247,715.241455 567.315857,722.757874 
	C565.070312,734.923462 566.862915,746.762329 567.088684,758.723999 
	C567.219971,765.678650 568.272583,772.615051 568.851929,779.564514 
	C568.885559,779.967957 568.267883,780.386658 568.159973,780.846741 
	C566.937012,786.058533 565.733765,791.257507 570.322388,795.661377 
	C571.199951,796.503540 571.756836,797.679932 572.461731,798.702148 
	C571.932312,798.656067 571.402893,798.609924 570.873474,798.563843 
	C569.583252,801.214844 567.189148,803.865234 567.187744,806.516968 
	C567.180237,820.331360 567.654785,834.152161 568.320190,847.953491 
	C568.410400,849.824951 570.135986,852.566101 571.774231,853.216003 
	C575.137329,854.550293 578.937927,855.158936 582.588562,855.302734 
	C588.017273,855.516541 593.528442,855.415710 598.218262,851.804993 
	C598.923157,851.262390 600.137756,851.231934 601.118958,851.223083 
	C606.789673,851.171692 612.461060,851.197937 618.378052,851.197937 
	C620.342407,842.613831 620.408936,834.597168 618.597351,826.522217 
	C618.248535,824.967285 617.697021,823.071777 618.253906,821.766174 
	C620.778625,815.846741 619.485657,809.998535 618.520386,804.098938 
	C618.310425,802.815674 617.596558,801.125549 618.140015,800.288086 
	C621.581055,794.985291 619.031982,790.458862 616.838623,785.731995 
	C616.311768,784.596680 616.528625,783.046082 616.629395,781.703491 
	C616.880188,778.364136 617.386597,775.040588 617.546082,771.699036 
	C617.652893,769.459656 617.163818,767.192444 617.263916,764.952087 
	C617.381226,762.324646 617.993652,759.720825 618.138245,757.092834 
	C618.742859,746.102600 614.229431,735.115173 618.105713,724.104370 
	C618.310547,723.522400 618.069519,722.785767 618.045837,722.120789 
	C617.888000,717.682129 617.218994,713.183594 617.725464,708.821777 
	C618.205139,704.690063 618.212646,701.629028 613.378113,701.306091 
	C614.791199,700.060120 617.250061,698.281738 617.081482,697.982239 
	C614.474182,693.350098 618.136536,689.060242 617.562317,684.570923 
	C616.954102,679.815918 616.590454,674.993042 616.609070,670.201660 
	C616.656067,658.105225 617.185730,646.009094 617.145081,633.914062 
	C617.067444,610.837280 616.929443,587.756470 616.378174,564.687805 
	C616.203491,557.381226 619.737793,548.990601 610.250549,543.074890 
	C617.587402,541.721985 617.465820,537.071960 617.491089,532.503174 
	C617.501221,530.669983 617.494263,528.836670 617.500061,527.003418 
	C617.522278,520.006531 617.523010,520.002380 624.297668,520.000061 
	C636.463806,519.995972 648.630554,520.073608 660.795776,519.967651 
	C668.055359,519.904419 673.096313,514.443787 672.720398,508.239105 
	C672.283264,501.025635 672.056946,493.733826 672.601807,486.541382 
	C673.480042,474.948151 671.250977,471.543030 659.865173,471.597443 
	C628.933594,471.745300 598.000000,472.104156 567.075134,472.756317 
	C553.270752,473.047424 539.480957,474.174622 525.695007,475.080475 
	C522.747925,475.274109 519.702026,475.767334 516.952271,476.793854 
	C510.737122,479.114136 509.933685,481.036987 511.416534,487.491699 
	C511.631104,488.425598 511.492371,489.456573 511.426300,490.436493 
	C510.959167,497.363220 510.389404,504.283936 510.005432,511.215057 
	C509.538055,519.652222 511.657440,521.903748 520.217346,521.975708 
	C530.732605,522.064148 541.249084,521.998291 551.765076,521.998840 
	C556.375977,521.999146 560.986877,521.998901 566.507629,521.998901 
	C566.507629,531.553650 566.346558,540.516663 566.569946,549.470154 
	C566.697571,554.584778 568.575073,559.887390 567.694519,564.748474 
	C565.727478,575.607483 563.458252,586.262512 566.725830,597.230896 
	C567.082581,598.428406 566.632812,599.857422 566.603516,601.180054 
	C566.113708,623.265503 565.629456,645.351074 565.170166,667.437195 
	C565.164551,667.710205 565.500488,667.990356 566.221741,668.884399 
M381.176361,544.115173 
	C381.769440,549.232117 382.441925,554.341736 382.915070,559.469727 
	C383.094971,561.419556 382.974640,563.432495 382.717651,565.380554 
	C381.937927,571.290894 380.508270,577.164673 380.291656,583.087769 
	C380.010132,590.785583 380.741364,598.515991 380.845917,606.234924 
	C380.881653,608.872131 380.116974,611.515747 380.101013,614.158752 
	C380.005707,629.960876 379.884827,645.765747 380.111237,661.564819 
	C380.159546,664.936462 381.606049,668.288086 382.408417,671.648926 
	C383.175873,674.546082 383.703369,677.509827 384.036316,680.495239 
	C384.137299,681.400574 383.822662,682.412476 383.485901,683.294373 
	C382.682007,685.399414 381.040588,687.443542 381.003815,689.534546 
	C380.887848,696.133850 381.293579,702.746399 381.615662,709.348022 
	C381.839691,713.939697 382.590179,718.526733 382.523773,723.107361 
	C382.364380,734.102173 381.465515,745.097961 381.633118,756.081665 
	C381.751617,763.847534 383.138977,771.593079 383.908325,779.352783 
	C383.949097,779.763916 383.422150,780.200928 383.307007,780.662598 
	C381.921173,786.217407 380.609924,791.706482 385.928528,796.241699 
	C386.563110,796.782837 386.347260,799.704285 385.985657,799.818909 
	C381.965668,801.093079 381.913116,804.220154 382.002106,807.491638 
	C382.332550,819.639282 382.629791,831.788025 383.012024,843.934082 
	C383.304199,853.216980 387.712585,856.624207 397.126343,855.546387 
	C402.671204,854.911499 408.386719,855.483582 413.248138,851.807861 
	C414.067413,851.188354 415.493225,851.223450 416.641449,851.211670 
	C422.145752,851.155029 427.651001,851.186279 433.160339,851.186279 
	C433.568970,849.691650 433.848724,848.751648 434.082520,847.800415 
	C436.922638,836.247009 431.587341,824.613953 434.497192,812.956604 
	C435.240845,809.977356 433.717010,806.437561 433.265594,803.151123 
	C433.133423,802.188965 432.673981,800.920776 433.100037,800.288208 
	C436.636841,795.037292 434.036713,790.482483 431.852936,785.755310 
	C431.325470,784.613586 431.505493,783.065857 431.613434,781.725220 
	C431.879578,778.419250 432.434631,775.132080 432.597260,771.823792 
	C432.707092,769.589844 432.119904,767.320190 432.243164,765.088623 
	C432.525543,759.975525 434.091003,754.696533 433.247253,749.811035 
	C431.819855,741.546448 430.964111,733.664185 432.892548,725.268982 
	C434.032104,720.308044 432.218506,714.740479 432.680939,709.529846 
	C433.059418,705.264648 433.360901,701.828125 428.682404,701.144348 
	C429.955292,699.914490 432.337769,698.058105 432.144043,697.731995 
	C429.777039,693.747192 432.575378,690.073547 432.528229,686.287903 
	C432.419220,677.533691 432.534302,668.776917 432.478668,660.021667 
	C432.433350,652.888855 432.234955,645.757141 432.169098,638.624268 
	C431.929962,612.729858 431.787170,586.834229 431.445129,560.941223 
	C431.363953,554.794739 433.863556,547.775818 424.964813,543.372314 
	C433.326477,541.371887 432.417206,535.842529 432.489685,530.763123 
	C432.506317,529.596985 432.492981,528.430420 432.495819,527.264038 
	C432.513397,520.004333 432.513611,520.001465 439.534149,519.999634 
	C451.697784,519.996460 463.862244,520.083923 476.024689,519.962280 
	C482.840546,519.894165 488.092194,514.315857 487.809235,508.492126 
	C487.450775,501.114624 487.082550,493.669067 487.674438,486.329956 
	C488.562775,475.315887 486.146423,471.551056 475.160828,471.609314 
	C443.737335,471.775970 412.312805,472.215332 380.895721,472.881195 
	C367.591217,473.163208 354.296875,474.170197 341.014740,475.090454 
	C337.595734,475.327332 334.051544,476.023743 330.897461,477.319031 
	C325.333527,479.604065 324.780396,481.407776 326.312469,487.190155 
	C326.596985,488.264038 326.462280,489.474670 326.388672,490.613617 
	C325.940521,497.548035 325.378876,504.475861 324.999969,511.413818 
	C324.556305,519.538757 326.720184,521.904907 334.915741,521.968323 
	C348.428040,522.072937 361.941711,521.997925 375.454803,521.998657 
	C377.210022,521.998718 378.965210,521.998657 381.167908,521.998657 
	C381.167908,529.549133 381.167908,536.361511 381.176361,544.115173 
z"/>
<path fill="#77BC40" opacity="1.000000" stroke="none" 
	d="
M860.156738,507.184174 
	C850.608276,532.842529 841.125061,558.114807 831.525635,583.696777 
	C829.145508,582.850098 827.833435,582.383362 825.668274,581.613098 
	C826.062622,583.272522 825.964539,584.766052 826.662537,585.466614 
	C829.674866,588.490112 828.950317,591.424011 827.605591,595.022278 
	C820.233215,614.748657 813.225037,634.611084 805.891541,654.352356 
	C803.543396,660.673523 806.144409,666.264954 808.213562,671.654480 
	C822.207703,708.105164 836.715881,744.358704 850.682861,780.819580 
	C859.061768,802.692871 866.769653,824.823425 874.753479,846.847595 
	C875.261230,848.248352 875.576660,849.722595 875.928772,851.175354 
	C876.888245,855.134277 874.868408,856.906494 871.238831,856.945435 
	C864.120911,857.021851 857.000488,856.861572 849.881104,856.799500 
	C846.250427,856.767822 842.585083,856.401917 838.995972,856.772888 
	C830.736084,857.626587 823.078064,854.219543 819.691101,846.530090 
	C816.225952,838.662964 813.703674,830.371704 810.922241,822.213745 
	C796.065674,778.639282 781.238708,735.054688 766.458496,691.454346 
	C764.857971,686.732910 764.019348,681.718750 762.076416,677.160400 
	C760.844238,674.269653 758.221375,671.971741 756.222168,669.407959 
	C755.640076,669.668213 755.057983,669.928528 754.475891,670.188782 
	C754.316895,671.893188 754.160706,673.597900 753.998474,675.302002 
	C753.402527,681.560669 752.637817,687.809631 752.280640,694.081848 
	C752.112610,697.032227 752.933777,700.025818 752.952881,703.002136 
	C753.071533,721.454895 752.997498,739.909241 753.167725,758.361389 
	C753.331299,776.093933 753.940308,793.825012 753.897034,811.555603 
	C753.877319,819.648376 752.758118,827.738403 752.143921,835.830078 
	C752.093689,836.492004 751.890320,837.229980 752.098816,837.810242 
	C754.267334,843.847595 751.092163,848.558350 748.278992,853.339417 
	C747.727844,854.276062 746.906250,855.689331 746.117065,855.753967 
	C735.680664,856.607849 725.209167,857.972473 714.785828,857.700256 
	C708.309387,857.531189 706.847656,850.439880 704.612549,845.588562 
	C703.156006,842.427063 703.133728,838.453979 703.058350,834.832214 
	C702.647034,815.062622 702.268127,795.290161 702.164062,775.517151 
	C702.024170,748.955139 702.157349,722.391724 702.147156,695.828918 
	C702.143799,687.101624 701.615723,678.348755 702.119141,669.653320 
	C702.809448,657.731079 704.337769,645.859192 705.295837,633.948792 
	C705.461548,631.888367 704.616516,629.736389 704.172913,627.640564 
	C703.836670,626.051758 703.072815,624.489502 703.050598,622.907776 
	C702.703064,598.128906 702.255005,573.348999 702.227051,548.568848 
	C702.204895,528.922668 702.726196,509.275970 702.994263,489.629364 
	C703.014709,488.131531 703.087708,486.611938 702.883362,485.137482 
	C702.059265,479.190948 703.404114,475.784302 709.259338,475.086761 
	C720.917297,473.697906 732.713379,473.118713 744.460876,472.992828 
	C749.603821,472.937744 752.453674,476.613892 752.771484,482.509247 
	C753.234497,491.099243 753.042969,499.723724 753.165100,508.333008 
	C753.389526,524.144653 753.851379,539.956360 753.819885,555.767273 
	C753.786804,572.412720 753.200073,589.056213 753.027710,605.702393 
	C752.886658,619.323608 752.999023,632.947388 752.999023,646.570068 
	C753.733582,646.853333 754.468079,647.136658 755.202637,647.419922 
	C756.827209,645.661621 758.751892,644.092651 760.008057,642.101929 
	C762.039124,638.883057 763.637085,635.390137 765.400024,632.003662 
	C765.625732,631.570068 765.922119,631.066345 765.886047,630.619202 
	C764.993896,619.558594 770.674805,610.181091 773.952148,600.272339 
	C785.717896,564.700073 797.936951,529.277527 810.039734,493.817200 
	C811.806702,488.640137 813.521240,483.388947 815.961609,478.523987 
	C817.028259,476.397644 819.692993,474.074493 821.926941,473.724609 
	C827.971313,472.777985 834.170776,472.652039 840.314453,472.550171 
	C848.472778,472.414917 856.645020,472.404724 864.795166,472.736511 
	C870.310669,472.961060 871.649475,475.139191 869.882812,480.131836 
	C866.729187,489.044159 863.449158,497.911774 860.156738,507.184174 
z"/>
<path fill="#77BC40" opacity="1.000000" stroke="none" 
	d="
M565.949341,668.575806 
	C565.500488,667.990356 565.164551,667.710205 565.170166,667.437195 
	C565.629456,645.351074 566.113708,623.265503 566.603516,601.180054 
	C566.632812,599.857422 567.082581,598.428406 566.725830,597.230896 
	C563.458252,586.262512 565.727478,575.607483 567.694519,564.748474 
	C568.575073,559.887390 566.697571,554.584778 566.569946,549.470154 
	C566.346558,540.516663 566.507629,531.553650 566.507629,521.998901 
	C560.986877,521.998901 556.375977,521.999146 551.765076,521.998840 
	C541.249084,521.998291 530.732605,522.064148 520.217346,521.975708 
	C511.657440,521.903748 509.538055,519.652222 510.005432,511.215057 
	C510.389404,504.283936 510.959167,497.363220 511.426300,490.436493 
	C511.492371,489.456573 511.631104,488.425598 511.416534,487.491699 
	C509.933685,481.036987 510.737122,479.114136 516.952271,476.793854 
	C519.702026,475.767334 522.747925,475.274109 525.695007,475.080475 
	C539.480957,474.174622 553.270752,473.047424 567.075134,472.756317 
	C598.000000,472.104156 628.933594,471.745300 659.865173,471.597443 
	C671.250977,471.543030 673.480042,474.948151 672.601807,486.541382 
	C672.056946,493.733826 672.283264,501.025635 672.720398,508.239105 
	C673.096313,514.443787 668.055359,519.904419 660.795776,519.967651 
	C648.630554,520.073608 636.463806,519.995972 624.297668,520.000061 
	C617.523010,520.002380 617.522278,520.006531 617.500061,527.003418 
	C617.494263,528.836670 617.501221,530.669983 617.491089,532.503174 
	C617.465820,537.071960 617.587402,541.721985 610.250549,543.074890 
	C619.737793,548.990601 616.203491,557.381226 616.378174,564.687805 
	C616.929443,587.756470 617.067444,610.837280 617.145081,633.914062 
	C617.185730,646.009094 616.656067,658.105225 616.609070,670.201660 
	C616.590454,674.993042 616.954102,679.815918 617.562317,684.570923 
	C618.136536,689.060242 614.474182,693.350098 617.081482,697.982239 
	C617.250061,698.281738 614.791199,700.060120 613.378113,701.306091 
	C618.212646,701.629028 618.205139,704.690063 617.725464,708.821777 
	C617.218994,713.183594 617.888000,717.682129 618.045837,722.120789 
	C618.069519,722.785767 618.310547,723.522400 618.105713,724.104370 
	C614.229431,735.115173 618.742859,746.102600 618.138245,757.092834 
	C617.993652,759.720825 617.381226,762.324646 617.263916,764.952087 
	C617.163818,767.192444 617.652893,769.459656 617.546082,771.699036 
	C617.386597,775.040588 616.880188,778.364136 616.629395,781.703491 
	C616.528625,783.046082 616.311768,784.596680 616.838623,785.731995 
	C619.031982,790.458862 621.581055,794.985291 618.140015,800.288086 
	C617.596558,801.125549 618.310425,802.815674 618.520386,804.098938 
	C619.485657,809.998535 620.778625,815.846741 618.253906,821.766174 
	C617.697021,823.071777 618.248535,824.967285 618.597351,826.522217 
	C620.408936,834.597168 620.342407,842.613831 618.378052,851.197937 
	C612.461060,851.197937 606.789673,851.171692 601.118958,851.223083 
	C600.137756,851.231934 598.923157,851.262390 598.218262,851.804993 
	C593.528442,855.415710 588.017273,855.516541 582.588562,855.302734 
	C578.937927,855.158936 575.137329,854.550293 571.774231,853.216003 
	C570.135986,852.566101 568.410400,849.824951 568.320190,847.953491 
	C567.654785,834.152161 567.180237,820.331360 567.187744,806.516968 
	C567.189148,803.865234 569.583252,801.214844 570.873474,798.563843 
	C571.402893,798.609924 571.932312,798.656067 572.461731,798.702148 
	C571.756836,797.679932 571.199951,796.503540 570.322388,795.661377 
	C565.733765,791.257507 566.937012,786.058533 568.159973,780.846741 
	C568.267883,780.386658 568.885559,779.967957 568.851929,779.564514 
	C568.272583,772.615051 567.219971,765.678650 567.088684,758.723999 
	C566.862915,746.762329 565.070312,734.923462 567.315857,722.757874 
	C568.703247,715.241455 566.051208,707.027588 565.599854,699.104797 
	C565.347107,694.669678 564.108337,688.261536 566.428955,686.123474 
	C571.562317,681.394043 564.747314,676.001953 568.707947,671.951294 
	C568.813904,671.842957 567.091492,669.946838 565.949341,668.575806 
z"/>
<path fill="#77BC40" opacity="1.000000" stroke="none" 
	d="
M381.172119,543.644531 
	C381.167908,536.361511 381.167908,529.549133 381.167908,521.998657 
	C378.965210,521.998657 377.210022,521.998718 375.454803,521.998657 
	C361.941711,521.997925 348.428040,522.072937 334.915741,521.968323 
	C326.720184,521.904907 324.556305,519.538757 324.999969,511.413818 
	C325.378876,504.475861 325.940521,497.548035 326.388672,490.613617 
	C326.462280,489.474670 326.596985,488.264038 326.312469,487.190155 
	C324.780396,481.407776 325.333527,479.604065 330.897461,477.319031 
	C334.051544,476.023743 337.595734,475.327332 341.014740,475.090454 
	C354.296875,474.170197 367.591217,473.163208 380.895721,472.881195 
	C412.312805,472.215332 443.737335,471.775970 475.160828,471.609314 
	C486.146423,471.551056 488.562775,475.315887 487.674438,486.329956 
	C487.082550,493.669067 487.450775,501.114624 487.809235,508.492126 
	C488.092194,514.315857 482.840546,519.894165 476.024689,519.962280 
	C463.862244,520.083923 451.697784,519.996460 439.534149,519.999634 
	C432.513611,520.001465 432.513397,520.004333 432.495819,527.264038 
	C432.492981,528.430420 432.506317,529.596985 432.489685,530.763123 
	C432.417206,535.842529 433.326477,541.371887 424.964813,543.372314 
	C433.863556,547.775818 431.363953,554.794739 431.445129,560.941223 
	C431.787170,586.834229 431.929962,612.729858 432.169098,638.624268 
	C432.234955,645.757141 432.433350,652.888855 432.478668,660.021667 
	C432.534302,668.776917 432.419220,677.533691 432.528229,686.287903 
	C432.575378,690.073547 429.777039,693.747192 432.144043,697.731995 
	C432.337769,698.058105 429.955292,699.914490 428.682404,701.144348 
	C433.360901,701.828125 433.059418,705.264648 432.680939,709.529846 
	C432.218506,714.740479 434.032104,720.308044 432.892548,725.268982 
	C430.964111,733.664185 431.819855,741.546448 433.247253,749.811035 
	C434.091003,754.696533 432.525543,759.975525 432.243164,765.088623 
	C432.119904,767.320190 432.707092,769.589844 432.597260,771.823792 
	C432.434631,775.132080 431.879578,778.419250 431.613434,781.725220 
	C431.505493,783.065857 431.325470,784.613586 431.852936,785.755310 
	C434.036713,790.482483 436.636841,795.037292 433.100037,800.288208 
	C432.673981,800.920776 433.133423,802.188965 433.265594,803.151123 
	C433.717010,806.437561 435.240845,809.977356 434.497192,812.956604 
	C431.587341,824.613953 436.922638,836.247009 434.082520,847.800415 
	C433.848724,848.751648 433.568970,849.691650 433.160339,851.186279 
	C427.651001,851.186279 422.145752,851.155029 416.641449,851.211670 
	C415.493225,851.223450 414.067413,851.188354 413.248138,851.807861 
	C408.386719,855.483582 402.671204,854.911499 397.126343,855.546387 
	C387.712585,856.624207 383.304199,853.216980 383.012024,843.934082 
	C382.629791,831.788025 382.332550,819.639282 382.002106,807.491638 
	C381.913116,804.220154 381.965668,801.093079 385.985657,799.818909 
	C386.347260,799.704285 386.563110,796.782837 385.928528,796.241699 
	C380.609924,791.706482 381.921173,786.217407 383.307007,780.662598 
	C383.422150,780.200928 383.949097,779.763916 383.908325,779.352783 
	C383.138977,771.593079 381.751617,763.847534 381.633118,756.081665 
	C381.465515,745.097961 382.364380,734.102173 382.523773,723.107361 
	C382.590179,718.526733 381.839691,713.939697 381.615662,709.348022 
	C381.293579,702.746399 380.887848,696.133850 381.003815,689.534546 
	C381.040588,687.443542 382.682007,685.399414 383.485901,683.294373 
	C383.822662,682.412476 384.137299,681.400574 384.036316,680.495239 
	C383.703369,677.509827 383.175873,674.546082 382.408417,671.648926 
	C381.606049,668.288086 380.159546,664.936462 380.111237,661.564819 
	C379.884827,645.765747 380.005707,629.960876 380.101013,614.158752 
	C380.116974,611.515747 380.881653,608.872131 380.845917,606.234924 
	C380.741364,598.515991 380.010132,590.785583 380.291656,583.087769 
	C380.508270,577.164673 381.937927,571.290894 382.717651,565.380554 
	C382.974640,563.432495 383.094971,561.419556 382.915070,559.469727 
	C382.441925,554.341736 381.769440,549.232117 381.172119,543.644531 
z"/>
</svg>